<svg
  width="96"
  height="24"
  viewBox="0 0 96 24"
  fill="none"
  xmlns="http://www.w3.org/2000/svg"
>
<path
    fill-rule="evenodd"
    clip-rule="evenodd"
    d="M13.5775 24L24.2225 13.6725H24.22C28.415 9.60501 30.1176 8.98749 38.1174 8.98749H70.0224L79.2024 0H36.9075C26.2 0 23.1725 1.02 16.8925 7.23501L0 24H13.5775ZM38.31 10.4225H68.6526L60.2376 18.8375H38.4675C34.4775 18.8375 33.5949 19.025 31.6149 21.005L28.62 24H16.03L25.3375 14.6925C28.9925 11.04 30.2526 10.4225 38.31 10.4225ZM96 0L71.9349 24H57.0525L81.0525 0H96ZM80.1549 23.24C80.655 23.7475 81.285 24 82.0425 24C82.8 24 83.4225 23.7475 83.9151 23.245C84.4074 22.7425 84.6525 22.12 84.6525 21.38C84.6525 20.64 84.405 20.0175 83.91 19.51C83.415 19.0025 82.7901 18.75 82.0326 18.75C81.2751 18.75 80.6475 19.0025 80.1501 19.505C79.6524 20.0075 79.4025 20.63 79.4025 21.37C79.4025 22.11 79.6524 22.7325 80.1549 23.24ZM80.4675 19.8075C80.8875 19.3775 81.4074 19.1625 82.0275 19.1625C82.65 19.1625 83.1699 19.3775 83.5875 19.8075C84.0051 20.2375 84.2151 20.76 84.2151 21.375C84.2151 21.99 84.0051 22.51 83.5875 22.9375C83.1675 23.365 82.65 23.5775 82.0275 23.5775C81.405 23.5775 80.8851 23.3625 80.4675 22.9325C80.0499 22.5025 79.8399 21.9825 79.8399 21.37C79.8399 20.7575 80.0499 20.2375 80.4675 19.8075ZM81.5151 22.8375V21.8075L81.5175 21.81H82.1049L82.6026 22.84H83.2101L82.6626 21.735C82.8474 21.65 82.9776 21.54 83.055 21.4025C83.1324 21.265 83.1699 21.055 83.1699 20.7725C83.1699 20.49 83.0751 20.2775 82.8849 20.1375C82.695 19.995 82.41 19.925 82.0326 19.925H80.9376V22.8375H81.5151ZM81.5049 21.355V20.375H81.9825C82.395 20.375 82.5999 20.5375 82.5999 20.865C82.5999 21.0375 82.56 21.1625 82.4799 21.24C82.4025 21.3175 82.2726 21.355 82.0926 21.355H81.5049Z"
    fill="#F7F7F7"
  />
</svg>
