<svg
  width="18"
  height="18"
  viewBox="0 0 18 18"
  fill="none"
  xmlns="http://www.w3.org/2000/svg"
>
<path
    fill-rule="evenodd"
    clip-rule="evenodd"
    d="M10.8702 0.717307C10.6017 0.986866 10.5093 1.38591 10.6319 1.74646C10.8719 2.45244 11.0025 3.2101 11.0025 4.00032C11.0025 7.86399 7.86975 11.0003 4.00001 11.0003C3.20902 11.0003 2.45076 10.8697 1.74423 10.6295C1.38439 10.5072 0.986475 10.6004 0.718008 10.87C0.449543 11.1395 0.357155 11.5386 0.479738 11.8991C1.68608 15.4473 5.04464 18 9.00001 18C13.9668 18 17.9975 13.973 17.9975 9.00002C17.9975 5.04026 15.442 1.68203 11.8964 0.476815C11.5365 0.354499 11.1386 0.447748 10.8702 0.717307ZM12.9649 3.22911C14.8007 4.49202 16.0025 6.6071 16.0025 9.00002C16.0025 12.8637 12.8697 16 9.00001 16C6.60642 16 4.49298 14.7994 3.22997 12.9678C3.48391 12.9893 3.74074 13.0003 4.00001 13.0003C8.96686 13.0003 12.9975 8.97326 12.9975 4.00032C12.9975 3.74065 12.9865 3.48343 12.9649 3.22911Z"
    fill="#FFEBEB"
  />
</svg>
