<svg
  width="22"
  height="22"
  viewBox="0 0 22 22"
  fill="none"
  xmlns="http://www.w3.org/2000/svg"
>
<path
    fill-rule="evenodd"
    clip-rule="evenodd"
    d="M11 0C11.5523 0 12 0.447715 12 1V3C12 3.55228 11.5523 4 11 4C10.4477 4 10 3.55228 10 3V1C10 0.447715 10.4477 0 11 0ZM3.19279 3.19279C3.58332 2.80227 4.21648 2.80227 4.60701 3.19279L6.02123 4.60701C6.41175 4.99754 6.41175 5.6307 6.02123 6.02123C5.6307 6.41175 4.99754 6.41175 4.60701 6.02123L3.19279 4.60701C2.80227 4.21648 2.80227 3.58332 3.19279 3.19279ZM18.8072 3.19279C19.1977 3.58331 19.1977 4.21647 18.8072 4.607L17.393 6.02122C17.0025 6.41175 16.3693 6.41175 15.9788 6.02123C15.5883 5.63071 15.5883 4.99754 15.9788 4.60702L17.393 3.1928C17.7835 2.80227 18.4167 2.80227 18.8072 3.19279ZM11 7C8.79087 7 7 8.79087 7 11C7 13.2091 8.79087 15 11 15C13.2091 15 15 13.2091 15 11C15 8.79087 13.2091 7 11 7ZM5 11C5 7.6863 7.6863 5 11 5C14.3137 5 17 7.68629 17 11C17 14.3137 14.3137 17 11 17C7.68629 17 5 14.3137 5 11ZM0 11C0 10.4477 0.447715 10 1 10H3C3.55228 10 4 10.4477 4 11C4 11.5523 3.55228 12 3 12H1C0.447715 12 0 11.5523 0 11ZM18 11C18 10.4477 18.4477 10 19 10H21C21.5523 10 22 10.4477 22 11C22 11.5523 21.5523 12 21 12H19C18.4477 12 18 11.5523 18 11ZM6.02123 15.9829C6.41175 16.3734 6.41175 17.0066 6.02122 17.3971L4.607 18.8113C4.21647 19.2018 3.58331 19.2018 3.19279 18.8113C2.80227 18.4208 2.80227 17.7876 3.1928 17.3971L4.60702 15.9829C4.99754 15.5924 5.63071 15.5924 6.02123 15.9829ZM15.9788 15.9829C16.3693 15.5924 17.0025 15.5924 17.393 15.9829L18.8072 17.3971C19.1977 17.7876 19.1977 18.4208 18.8072 18.8113C18.4167 19.2018 17.7835 19.2018 17.393 18.8113L15.9788 17.3971C15.5883 17.0066 15.5883 16.3734 15.9788 15.9829ZM11 18C11.5523 18 12 18.4477 12 19V21C12 21.5523 11.5523 22 11 22C10.4477 22 10 21.5523 10 21V19C10 18.4477 10.4477 18 11 18Z"
    fill="white"
  />
</svg>
